<svg width="21" height="23" viewBox="0 0 21 23" fill="none" xmlns="http://www.w3.org/2000/svg">
<path d="M20.6934 11.2872C20.6934 11.0822 20.6517 10.8798 20.5722 10.6919L20.4803 10.5084L20.364 10.3393C20.2796 10.232 20.1813 10.1363 20.0714 10.0543L19.8988 9.94205L19.8964 9.94084L2.33574 0.197699L2.33329 0.196492C2.05187 0.0415788 1.72831 -0.0245833 1.40776 0.0081239C1.08715 0.0408692 0.784285 0.17029 0.540987 0.378821C0.297713 0.587332 0.125218 0.864819 0.0476134 1.17334C-0.0299699 1.48186 -0.00865531 1.80663 0.107603 2.1031L0.107603 2.10431L3.72771 11.2872L0.106378 20.4689C-0.0105902 20.7657 -0.0312201 21.0919 0.0463899 21.401C0.124032 21.7099 0.296087 21.9881 0.539762 22.1968C0.783656 22.4055 1.08772 22.534 1.40898 22.5662C1.73021 22.5985 2.05425 22.5327 2.33574 22.3767L19.8964 12.6335L19.8988 12.6311C20.1399 12.4963 20.3408 12.301 20.4803 12.0648L20.5722 11.8825C20.6518 11.6945 20.6933 11.4922 20.6934 11.2872ZM2.17781 20.3372L5.52368 11.8462C5.64761 11.5315 5.66307 11.1869 5.5702 10.8646L5.52368 10.7269L2.17903 2.23954L18.4873 11.2872L2.17781 20.3372Z" fill="url(#paint0_linear_59_4153)"/>
<defs>
<linearGradient id="paint0_linear_59_4153" x1="20.6934" y1="11.2871" x2="8.30686" y2="0.738323" gradientUnits="userSpaceOnUse">
<stop stop-color="#102A61"/>
<stop offset="1" stop-color="#2156C7"/>
</linearGradient>
</defs>
</svg>
