<svg width="127" height="84" viewBox="0 0 127 84" fill="none" xmlns="http://www.w3.org/2000/svg">
<g filter="url(#filter0_d_632_1514)">
<rect x="10" y="10" width="101" height="58" rx="8" fill="#545481" shape-rendering="crispEdges"/>
<rect x="10" y="10" width="101" height="58" rx="8" fill="url(#paint0_linear_632_1514)" shape-rendering="crispEdges"/>
<rect x="11" y="11" width="99" height="56" rx="7" stroke="url(#paint1_linear_632_1514)" stroke-width="2" shape-rendering="crispEdges"/>
<g filter="url(#filter1_d_632_1514)">
<path d="M70.8467 39.0001C70.8467 38.7951 70.8051 38.5927 70.7255 38.4048L70.6337 38.2212L70.5174 38.0522C70.433 37.9449 70.3346 37.8491 70.2248 37.7672L70.0522 37.6549L70.0498 37.6537L52.4891 27.9106L52.4867 27.9094C52.2053 27.7545 51.8817 27.6883 51.5611 27.721C51.2405 27.7538 50.9377 27.8832 50.6944 28.0917C50.4511 28.3002 50.2786 28.5777 50.201 28.8862C50.1234 29.1947 50.1447 29.5195 50.261 29.816L50.261 29.8172L53.8811 39.0001L50.2598 48.1817C50.1428 48.4786 50.1222 48.8047 50.1998 49.1139C50.2774 49.4228 50.4495 49.701 50.6931 49.9096C50.937 50.1184 51.2411 50.2469 51.5624 50.2791C51.8836 50.3113 52.2076 50.2456 52.4891 50.0896L70.0498 40.3464L70.0522 40.344C70.2933 40.2092 70.4942 40.0139 70.6337 39.7777L70.7255 39.5954C70.8051 39.4074 70.8467 39.2051 70.8467 39.0001ZM52.3312 48.0501L55.6771 39.5591C55.801 39.2444 55.8165 38.8998 55.7236 38.5775L55.6771 38.4398L52.3324 29.9524L68.6406 39.0001L52.3312 48.0501Z" fill="white"/>
</g>
</g>
<defs>
<filter id="filter0_d_632_1514" x="0.8" y="0.8" width="125.4" height="82.4" filterUnits="userSpaceOnUse" color-interpolation-filters="sRGB">
<feFlood flood-opacity="0" result="BackgroundImageFix"/>
<feColorMatrix in="SourceAlpha" type="matrix" values="0 0 0 0 0 0 0 0 0 0 0 0 0 0 0 0 0 0 127 0" result="hardAlpha"/>
<feOffset dx="3" dy="3"/>
<feGaussianBlur stdDeviation="6.1"/>
<feComposite in2="hardAlpha" operator="out"/>
<feColorMatrix type="matrix" values="0 0 0 0 0 0 0 0 0 0 0 0 0 0 0 0 0 0 0.25 0"/>
<feBlend mode="normal" in2="BackgroundImageFix" result="effect1_dropShadow_632_1514"/>
<feBlend mode="normal" in="SourceGraphic" in2="effect1_dropShadow_632_1514" result="shape"/>
</filter>
<filter id="filter1_d_632_1514" x="46.3913" y="22.0693" width="28.2178" height="30.099" filterUnits="userSpaceOnUse" color-interpolation-filters="sRGB">
<feFlood flood-opacity="0" result="BackgroundImageFix"/>
<feColorMatrix in="SourceAlpha" type="matrix" values="0 0 0 0 0 0 0 0 0 0 0 0 0 0 0 0 0 0 127 0" result="hardAlpha"/>
<feOffset dy="-1.88119"/>
<feGaussianBlur stdDeviation="1.88119"/>
<feComposite in2="hardAlpha" operator="out"/>
<feColorMatrix type="matrix" values="0 0 0 0 0 0 0 0 0 0 0 0 0 0 0 0 0 0 0.25 0"/>
<feBlend mode="normal" in2="BackgroundImageFix" result="effect1_dropShadow_632_1514"/>
<feBlend mode="normal" in="SourceGraphic" in2="effect1_dropShadow_632_1514" result="shape"/>
</filter>
<linearGradient id="paint0_linear_632_1514" x1="-2.6678" y1="94.5833" x2="114.992" y2="84.1903" gradientUnits="userSpaceOnUse">
<stop stop-color="#1B1B3F"/>
<stop offset="1" stop-color="#1243AC"/>
</linearGradient>
<linearGradient id="paint1_linear_632_1514" x1="7.89583" y1="43.2963" x2="115.54" y2="28.0152" gradientUnits="userSpaceOnUse">
<stop stop-color="#1243AC"/>
<stop offset="1" stop-color="#6DBEFF"/>
</linearGradient>
</defs>
</svg>
