<svg width="58" height="56" viewBox="0 0 58 56" fill="none" xmlns="http://www.w3.org/2000/svg">
<g clip-path="url(#paint0_diamond_632_1549_clip_path)" data-figma-skip-parse="true"><g transform="matrix(0.048 -1.03743e-09 1.26116e-09 -0.048 29 28)"><rect x="0" y="0" width="625" height="604.167" fill="url(#paint0_diamond_632_1549)" opacity="1" shape-rendering="crispEdges"/><rect x="0" y="0" width="625" height="604.167" transform="scale(1 -1)" fill="url(#paint0_diamond_632_1549)" opacity="1" shape-rendering="crispEdges"/><rect x="0" y="0" width="625" height="604.167" transform="scale(-1 1)" fill="url(#paint0_diamond_632_1549)" opacity="1" shape-rendering="crispEdges"/><rect x="0" y="0" width="625" height="604.167" transform="scale(-1)" fill="url(#paint0_diamond_632_1549)" opacity="1" shape-rendering="crispEdges"/></g></g><rect x="-0.5" y="-0.5" width="55" height="57" rx="27.5" transform="matrix(4.37114e-08 -1 -1 -4.37114e-08 57 55)" data-figma-gradient-fill="{&#34;type&#34;:&#34;GRADIENT_DIAMOND&#34;,&#34;stops&#34;:[{&#34;color&#34;:{&#34;r&#34;:0.29227387905120850,&#34;g&#34;:0.51638740301132202,&#34;b&#34;:1.0,&#34;a&#34;:1.0},&#34;position&#34;:0.0},{&#34;color&#34;:{&#34;r&#34;:0.064096070826053619,&#34;g&#34;:0.16467809677124023,&#34;b&#34;:0.38172325491905212,&#34;a&#34;:1.0},&#34;position&#34;:1.0}],&#34;stopsVar&#34;:[{&#34;color&#34;:{&#34;r&#34;:0.29227387905120850,&#34;g&#34;:0.51638740301132202,&#34;b&#34;:1.0,&#34;a&#34;:1.0},&#34;position&#34;:0.0},{&#34;color&#34;:{&#34;r&#34;:0.064096070826053619,&#34;g&#34;:0.16467809677124023,&#34;b&#34;:0.38172325491905212,&#34;a&#34;:1.0},&#34;position&#34;:1.0}],&#34;transform&#34;:{&#34;m00&#34;:96.0,&#34;m01&#34;:2.5223123429896077e-06,&#34;m02&#34;:-19.000007629394531,&#34;m10&#34;:-2.0748595943587134e-06,&#34;m11&#34;:-96.000007629394531,&#34;m12&#34;:76.000007629394531},&#34;opacity&#34;:1.0,&#34;blendMode&#34;:&#34;NORMAL&#34;,&#34;visible&#34;:true}"/>
<rect x="-0.5" y="-0.5" width="55" height="57" rx="27.5" transform="matrix(4.37114e-08 -1 -1 -4.37114e-08 57 55)" stroke="url(#paint1_linear_632_1549)"/>
<g filter="url(#filter0_d_632_1549)">
<path d="M37.2532 27.9999C37.2532 27.8341 37.22 27.6705 37.1566 27.5185L37.0833 27.37L36.9905 27.2333C36.9232 27.1465 36.8447 27.0691 36.7571 27.0028L36.6194 26.912L36.6175 26.911L22.6097 19.0311L22.6077 19.0302C22.3832 18.9049 22.1251 18.8514 21.8694 18.8778C21.6137 18.9043 21.3721 19.009 21.178 19.1776C20.984 19.3463 20.8464 19.5707 20.7845 19.8202C20.7226 20.0697 20.7396 20.3324 20.8323 20.5722L20.8323 20.5731L23.72 27.9999L20.8314 35.4257C20.7381 35.6658 20.7216 35.9295 20.7835 36.1796C20.8454 36.4294 20.9827 36.6544 21.1771 36.8231C21.3716 36.992 21.6142 37.0959 21.8704 37.122C22.1267 37.148 22.3851 37.0948 22.6097 36.9686L36.6175 29.0888L36.6194 29.0868C36.8118 28.9778 36.972 28.8198 37.0833 28.6288L37.1566 28.4813C37.2201 28.3293 37.2532 28.1657 37.2532 27.9999ZM22.4837 35.3192L25.1526 28.452C25.2515 28.1975 25.2638 27.9188 25.1898 27.6581L25.1526 27.5468L22.4847 20.6825L35.4935 27.9999L22.4837 35.3192Z" fill="white"/>
</g>
<defs>
<clipPath id="paint0_diamond_632_1549_clip_path"><rect x="-0.5" y="-0.5" width="55" height="57" rx="27.5" transform="matrix(4.37114e-08 -1 -1 -4.37114e-08 57 55)"/></clipPath><filter id="filter0_d_632_1549" x="16.7467" y="12.8711" width="24.5065" height="26.2573" filterUnits="userSpaceOnUse" color-interpolation-filters="sRGB">
<feFlood flood-opacity="0" result="BackgroundImageFix"/>
<feColorMatrix in="SourceAlpha" type="matrix" values="0 0 0 0 0 0 0 0 0 0 0 0 0 0 0 0 0 0 127 0" result="hardAlpha"/>
<feOffset dy="-2"/>
<feGaussianBlur stdDeviation="2"/>
<feComposite in2="hardAlpha" operator="out"/>
<feColorMatrix type="matrix" values="0 0 0 0 0 0 0 0 0 0 0 0 0 0 0 0 0 0 0.25 0"/>
<feBlend mode="normal" in2="BackgroundImageFix" result="effect1_dropShadow_632_1549"/>
<feBlend mode="normal" in="SourceGraphic" in2="effect1_dropShadow_632_1549" result="shape"/>
</filter>
<linearGradient id="paint0_diamond_632_1549" x1="0" y1="0" x2="500" y2="500" gradientUnits="userSpaceOnUse">
<stop stop-color="#4B84FF"/>
<stop offset="1" stop-color="#102A61"/>
</linearGradient>
<linearGradient id="paint1_linear_632_1549" x1="53" y1="-8" x2="2.5" y2="53" gradientUnits="userSpaceOnUse">
<stop stop-color="white"/>
<stop offset="0.490385" stop-color="#2055C5"/>
<stop offset="1" stop-color="#000F2E"/>
</linearGradient>
</defs>
</svg>
